<?xml version="1.0" encoding="UTF-8"?>
<svg xmlns="http://www.w3.org/2000/svg" width="744.09448819" height="1052.3622047" id="exportedSVG" version="1.1" pencil:version="1.2.2" xmlns:pencil="http://www.evolus.vn/Namespace/Pencil" sodipodi:docname="salt.ep" xmlns:sodipodi="http://sodipodi.sourceforge.net/DTD/sodipodi-0.dtd"><g inkscape:label="salt-syndic" xmlns:inkscape="http://www.inkscape.org/namespaces/inkscape" inkscape:groupmode="layer" id="layer_saltsyndic"><g><rect x="0" y="0" width="1223" height="1223" fill="none"/><g pencil:type="Shape" pencil:def="Evolus.Sketchy.GUI:line" id="5409cfb071b64174bdc97d13ec0d4bdb" transform="matrix(1,0,0,1,371,225)"><pencil:metadata><pencil:property name="a">5,50</pencil:property><pencil:property name="b">80,-46</pencil:property><pencil:property name="mode">free</pencil:property><pencil:property name="strokeColor">#000000FF</pencil:property><pencil:property name="strokeStyle">1|</pencil:property></pencil:metadata>
            <g pencil:name="rect" id="db35fd2f8de84ab780c6d94098e92dd9" transform="translate(0.5,0.5)" style="stroke: rgb(0, 0, 0); stroke-opacity: 1; stroke-width: 1;">
    			<path style="stroke: #FFFFFF; stroke-opacity: 0; stroke-width: 8px; fill: none;" pencil:name="bg" id="11cac425c4c046d491d973b0140dd7ee" transform="translate(0.5,0.5)" d="M 5 50 C 29 18 54 -15 80 -46"/>
    			<path style="stroke-linejoin: round; fill: none;" pencil:name="line1" id="6844732329624da0972c0fdc91064066" transform="translate(0.5,0.5)" d="M 5 50 C 29 18 54 -15 80 -46"/>
    		</g>
        </g><g pencil:type="Shape" pencil:def="Evolus.Sketchy.GUI:line" id="12f03b9aba454cb49844f2bdd464ba96" transform="matrix(1,0,0,1,572,191)"><pencil:metadata><pencil:property name="a">0,0</pencil:property><pencil:property name="b">74,90</pencil:property><pencil:property name="mode">free</pencil:property><pencil:property name="strokeColor">#000000FF</pencil:property><pencil:property name="strokeStyle">1|</pencil:property></pencil:metadata>
            <g pencil:name="rect" id="03ae985d4dec4fd080fdb5452ffb2961" transform="translate(0.5,0.5)" style="stroke: rgb(0, 0, 0); stroke-opacity: 1; stroke-width: 1;">
    			<path style="stroke: #FFFFFF; stroke-opacity: 0; stroke-width: 8px; fill: none;" pencil:name="bg" id="dfdc416333ca4cb6b2d7a2d9a94847a2" transform="translate(0.5,0.5)" d="M 0 0 C 24 30 49 60 74 90"/>
    			<path style="stroke-linejoin: round; fill: none;" pencil:name="line1" id="106b9fb270c74baab4cc6db00890ba97" transform="translate(0.5,0.5)" d="M 0 0 C 24 30 49 60 74 90"/>
    		</g>
        </g><g pencil:type="Shape" pencil:def="Evolus.Sketchy.GUI:line" id="6c5891e542814c848ea66ddb240b8e9e" transform="matrix(1,0,0,1,663,370)"><pencil:metadata><pencil:property name="a">6,-34</pencil:property><pencil:property name="b">11,31</pencil:property><pencil:property name="mode">free</pencil:property><pencil:property name="strokeColor">#000000FF</pencil:property><pencil:property name="strokeStyle">1|</pencil:property></pencil:metadata>
            <g pencil:name="rect" id="e4954631f924439aaf5d5a90d25cc8b2" transform="translate(0.5,0.5)" style="stroke: rgb(0, 0, 0); stroke-opacity: 1; stroke-width: 1;">
    			<path style="stroke: #FFFFFF; stroke-opacity: 0; stroke-width: 8px; fill: none;" pencil:name="bg" id="6a4ac55c5def4f0486cd87bbf3868deb" transform="translate(0.5,0.5)" d="M 6 -34 C 8 -12 9 9 11 31"/>
    			<path style="stroke-linejoin: round; fill: none;" pencil:name="line1" id="3409cf06706540fdb046c48a3c7ce191" transform="translate(0.5,0.5)" d="M 6 -34 C 8 -12 9 9 11 31"/>
    		</g>
        </g><g pencil:type="Shape" pencil:def="Evolus.Sketchy.GUI:line" id="b70406cf8af64546bd54f78b03b3a9f1" transform="matrix(1,0,0,1,724,332)"><pencil:metadata><pencil:property name="a">0,0</pencil:property><pencil:property name="b">95,73</pencil:property><pencil:property name="mode">free</pencil:property><pencil:property name="strokeColor">#000000FF</pencil:property><pencil:property name="strokeStyle">1|</pencil:property></pencil:metadata>
            <g pencil:name="rect" id="da5a49ed93f048e9aceafa0a20b51e25" transform="translate(0.5,0.5)" style="stroke: rgb(0, 0, 0); stroke-opacity: 1; stroke-width: 1;">
    			<path style="stroke: #FFFFFF; stroke-opacity: 0; stroke-width: 8px; fill: none;" pencil:name="bg" id="0512b07c7747469190003d21acb452b6" transform="translate(0.5,0.5)" d="M 0 0 C 31 25 63 50 95 73"/>
    			<path style="stroke-linejoin: round; fill: none;" pencil:name="line1" id="4a27269ff6aa46dbac2e3b75067e1bf8" transform="translate(0.5,0.5)" d="M 0 0 C 31 25 63 50 95 73"/>
    		</g>
        </g><g pencil:type="Shape" pencil:def="Evolus.Sketchy.GUI:line" id="810fd645c465497896ec4cbe8bd33653" transform="matrix(1,0,0,1,765,339)"><pencil:metadata><pencil:property name="a">0,0</pencil:property><pencil:property name="b">176,74</pencil:property><pencil:property name="mode">free</pencil:property><pencil:property name="strokeColor">#000000FF</pencil:property><pencil:property name="strokeStyle">1|</pencil:property></pencil:metadata>
            <g pencil:name="rect" id="f62e6b77922041c38d52b21a245c07ca" transform="translate(0.5,0.5)" style="stroke: rgb(0, 0, 0); stroke-opacity: 1; stroke-width: 1;">
    			<path style="stroke: #FFFFFF; stroke-opacity: 0; stroke-width: 8px; fill: none;" pencil:name="bg" id="f3652d4a0b624681b49022a3475a9784" transform="translate(0.5,0.5)" d="M 0 0 C 59 23 118 48 176 74"/>
    			<path style="stroke-linejoin: round; fill: none;" pencil:name="line1" id="f264ec81739e4f85987950f55f20fe88" transform="translate(0.5,0.5)" d="M 0 0 C 59 23 118 48 176 74"/>
    		</g>
        </g><g pencil:type="Shape" pencil:def="Evolus.Sketchy.GUI:box" id="1e5416c21ba2464cad9c4cbc0c83f6c0" transform="matrix(1,0,0,1,573,268)"><pencil:metadata><pencil:property name="box">200,72</pencil:property><pencil:property name="textPadding">10,4.8</pencil:property><pencil:property name="fillColor">#FFCCCCFF</pencil:property><pencil:property name="strokeColor">#000000FF</pencil:property><pencil:property name="strokeStyle">1|</pencil:property><pencil:property name="textContent">Master</pencil:property><pencil:property name="textFont">Cantarell|bold|normal|18px|none</pencil:property><pencil:property name="textColor">#000000FF</pencil:property><pencil:property name="textAlign">1,1</pencil:property></pencil:metadata>
            <path style="stroke-linejoin: round; fill: rgb(255, 204, 204); fill-opacity: 1; stroke: rgb(0, 0, 0); stroke-opacity: 1; stroke-width: 1;" pencil:name="line1" id="088ad4cc72c34a4bb0a3bfe005a6951e" transform="translate(0.5,0.5)" d="M 0 0 C 67 0 133 0 200 0 C 200 24 200 48 200 72 C 133 71 67 71 0 72 C -1 48 -1 24 0 0 z"/>
            <text pencil:name="text" id="5f661af54d2b4508932aca0ad90b2bf1" style="font-family: Cantarell; font-size: 18px; font-weight: bold; font-style: normal; text-decoration: none; fill: rgb(0, 0, 0); fill-opacity: 1;" transform="translate(10,43)"><tspan x="59.5" y="0">Master</tspan></text>
        </g><g pencil:type="Shape" pencil:def="Evolus.Sketchy.GUI:box" id="279d8e64560c4332a941393b059b5ae1" transform="matrix(1,0,0,1,900,394)"><pencil:metadata><pencil:property name="box">111,76</pencil:property><pencil:property name="textPadding">5.55,5.066666666666667</pencil:property><pencil:property name="fillColor">#CCFFFFFF</pencil:property><pencil:property name="strokeColor">#000000FF</pencil:property><pencil:property name="strokeStyle">1|</pencil:property><pencil:property name="textContent">Minion</pencil:property><pencil:property name="textFont">Cantarell|bold|normal|15px|none</pencil:property><pencil:property name="textColor">#000000FF</pencil:property><pencil:property name="textAlign">1,1</pencil:property></pencil:metadata>
            <path style="stroke-linejoin: round; fill: rgb(204, 255, 255); fill-opacity: 1; stroke: rgb(0, 0, 0); stroke-opacity: 1; stroke-width: 1;" pencil:name="line1" id="479935f448fa4841af2a05f2970a4d9b" transform="translate(0.5,0.5)" d="M 0 0 C 37 0 74 0 111 0 C 111 25 111 51 111 76 C 74 76 37 76 0 76 C 0 51 0 25 0 0 z"/>
            <text pencil:name="text" id="c151528f2466459abba646df24af4bb7" style="font-family: Cantarell; font-size: 15px; font-weight: bold; font-style: normal; text-decoration: none; fill: rgb(0, 0, 0); fill-opacity: 1;" transform="translate(6,44)"><tspan x="25.950000000000003" y="0">Minion</tspan></text>
        </g><g pencil:type="Shape" pencil:def="Evolus.Sketchy.GUI:box" id="5aa47da5f2bb4add9dde8e04ae0a74b2" transform="matrix(1,0,0,1,767,393)"><pencil:metadata><pencil:property name="box">111,76</pencil:property><pencil:property name="textPadding">5.55,5.066666666666667</pencil:property><pencil:property name="fillColor">#CCFFFFFF</pencil:property><pencil:property name="strokeColor">#000000FF</pencil:property><pencil:property name="strokeStyle">1|</pencil:property><pencil:property name="textContent">Minion</pencil:property><pencil:property name="textFont">Cantarell|bold|normal|15px|none</pencil:property><pencil:property name="textColor">#000000FF</pencil:property><pencil:property name="textAlign">1,1</pencil:property></pencil:metadata>
            <path style="stroke-linejoin: round; fill: rgb(204, 255, 255); fill-opacity: 1; stroke: rgb(0, 0, 0); stroke-opacity: 1; stroke-width: 1;" pencil:name="line1" id="60ee5f41520a4f36985010045a199765" transform="translate(0.5,0.5)" d="M 0 0 C 37 0 74 0 111 0 C 111 25 111 51 111 76 C 74 77 37 77 0 76 C 0 51 0 25 0 0 z"/>
            <text pencil:name="text" id="fed75c2a34e344168d6348271d0687b7" style="font-family: Cantarell; font-size: 15px; font-weight: bold; font-style: normal; text-decoration: none; fill: rgb(0, 0, 0); fill-opacity: 1;" transform="translate(6,44)"><tspan x="25.950000000000003" y="0">Minion</tspan></text>
        </g><g pencil:type="Shape" pencil:def="Evolus.Sketchy.GUI:box" id="fa64ecec43f14139a0544f81d551c063" transform="matrix(1,0,0,1,622,393)"><pencil:metadata><pencil:property name="box">111,76</pencil:property><pencil:property name="textPadding">5.55,5.066666666666667</pencil:property><pencil:property name="fillColor">#CCFFFFFF</pencil:property><pencil:property name="strokeColor">#000000FF</pencil:property><pencil:property name="strokeStyle">1|</pencil:property><pencil:property name="textContent">Minion</pencil:property><pencil:property name="textFont">Cantarell|bold|normal|15px|none</pencil:property><pencil:property name="textColor">#000000FF</pencil:property><pencil:property name="textAlign">1,1</pencil:property></pencil:metadata>
            <path style="stroke-linejoin: round; fill: rgb(204, 255, 255); fill-opacity: 1; stroke: rgb(0, 0, 0); stroke-opacity: 1; stroke-width: 1;" pencil:name="line1" id="83ddffb2fad2410e95f90e452f7e06da" transform="translate(0.5,0.5)" d="M 0 0 C 37 0 74 0 111 0 C 111 25 111 51 111 76 C 74 76 37 76 0 76 C 0 51 0 25 0 0 z"/>
            <text pencil:name="text" id="b19dcaa42ea64c398f1e2252a1dc9591" style="font-family: Cantarell; font-size: 15px; font-weight: bold; font-style: normal; text-decoration: none; fill: rgb(0, 0, 0); fill-opacity: 1;" transform="translate(6,44)"><tspan x="25.950000000000003" y="0">Minion</tspan></text>
        </g><g pencil:type="Shape" pencil:def="Evolus.Sketchy.GUI:line" id="5e32bb9bc2a14d27b414d5084bee80b3" transform="matrix(1,0,0,1,66,368)"><pencil:metadata><pencil:property name="a">3,21</pencil:property><pencil:property name="b">181,-35</pencil:property><pencil:property name="mode">free</pencil:property><pencil:property name="strokeColor">#000000FF</pencil:property><pencil:property name="strokeStyle">1|</pencil:property></pencil:metadata>
            <g pencil:name="rect" id="ff15fb670c66476ea110df6c8052dcea" transform="translate(0.5,0.5)" style="stroke: rgb(0, 0, 0); stroke-opacity: 1; stroke-width: 1;">
    			<path style="stroke: #FFFFFF; stroke-opacity: 0; stroke-width: 8px; fill: none;" pencil:name="bg" id="7a2ebd11436543dd9e07bc82374a3822" transform="translate(0.5,0.5)" d="M 3 21 C 63 4 122 -15 181 -35"/>
    			<path style="stroke-linejoin: round; fill: none;" pencil:name="line1" id="bfde1722d67e4db1a42fd544c8f9a8d0" transform="translate(0.5,0.5)" d="M 3 21 C 63 4 122 -15 181 -35"/>
    		</g>
        </g><g pencil:type="Shape" pencil:def="Evolus.Sketchy.GUI:line" id="5542ed84596e4670bacba4b46822e289" transform="matrix(1,0,0,1,224,364)"><pencil:metadata><pencil:property name="a">-15,41</pencil:property><pencil:property name="b">63,-35</pencil:property><pencil:property name="mode">free</pencil:property><pencil:property name="strokeColor">#000000FF</pencil:property><pencil:property name="strokeStyle">1|</pencil:property></pencil:metadata>
            <g pencil:name="rect" id="04247c7114de42e7af99b95818b31d32" transform="translate(0.5,0.5)" style="stroke: rgb(0, 0, 0); stroke-opacity: 1; stroke-width: 1;">
    			<path style="stroke: #FFFFFF; stroke-opacity: 0; stroke-width: 8px; fill: none;" pencil:name="bg" id="7fc3ca4c33ae4831bdbac1658f8da0b1" transform="translate(0.5,0.5)" d="M -15 41 C 10 15 36 -10 63 -35"/>
    			<path style="stroke-linejoin: round; fill: none;" pencil:name="line1" id="a00ed9a4cf4a402b9c817deda8065263" transform="translate(0.5,0.5)" d="M -15 41 C 10 15 36 -10 63 -35"/>
    		</g>
        </g><g pencil:type="Shape" pencil:def="Evolus.Sketchy.GUI:line" id="ca1c5fa3301d4922ab54ad00f9f274ea" transform="matrix(1,0,0,1,334,367)"><pencil:metadata><pencil:property name="a">6,-34</pencil:property><pencil:property name="b">11,31</pencil:property><pencil:property name="mode">free</pencil:property><pencil:property name="strokeColor">#000000FF</pencil:property><pencil:property name="strokeStyle">1|</pencil:property></pencil:metadata>
            <g pencil:name="rect" id="7d3d8924b7e0413fae94df3748856ca8" transform="translate(0.5,0.5)" style="stroke: rgb(0, 0, 0); stroke-opacity: 1; stroke-width: 1;">
    			<path style="stroke: #FFFFFF; stroke-opacity: 0; stroke-width: 8px; fill: none;" pencil:name="bg" id="bae5011d910141aca504c45453bbe9c4" transform="translate(0.5,0.5)" d="M 6 -34 C 8 -12 9 9 11 31"/>
    			<path style="stroke-linejoin: round; fill: none;" pencil:name="line1" id="9f457537ad854343b6688d42594713d2" transform="translate(0.5,0.5)" d="M 6 -34 C 8 -12 9 9 11 31"/>
    		</g>
        </g><g pencil:type="Shape" pencil:def="Evolus.Sketchy.GUI:box" id="05bc5a73164d49ca9bd2144f4d820719" transform="matrix(1,0,0,1,244,265)"><pencil:metadata><pencil:property name="box">200,72</pencil:property><pencil:property name="textPadding">10,4.8</pencil:property><pencil:property name="fillColor">#FFCCCCFF</pencil:property><pencil:property name="strokeColor">#000000FF</pencil:property><pencil:property name="strokeStyle">1|</pencil:property><pencil:property name="textContent">Master</pencil:property><pencil:property name="textFont">Cantarell|bold|normal|18px|none</pencil:property><pencil:property name="textColor">#000000FF</pencil:property><pencil:property name="textAlign">1,1</pencil:property></pencil:metadata>
            <path style="stroke-linejoin: round; fill: rgb(255, 204, 204); fill-opacity: 1; stroke: rgb(0, 0, 0); stroke-opacity: 1; stroke-width: 1;" pencil:name="line1" id="59cb8a833b6c419e98d485f5a8b9e58c" transform="translate(0.5,0.5)" d="M 0 0 C 67 0 133 0 200 0 C 200 24 200 48 200 72 C 133 71 67 71 0 72 C -1 48 -1 24 0 0 z"/>
            <text pencil:name="text" id="c932c87da6f74194bb242c925e714ee2" style="font-family: Cantarell; font-size: 18px; font-weight: bold; font-style: normal; text-decoration: none; fill: rgb(0, 0, 0); fill-opacity: 1;" transform="translate(10,43)"><tspan x="59.5" y="0">Master</tspan></text>
        </g><g pencil:type="Shape" pencil:def="Evolus.Sketchy.GUI:box" id="0d012e482e2d4cd8ba8e2e9ca2487698" transform="matrix(1,0,0,1,4,390)"><pencil:metadata><pencil:property name="box">111,76</pencil:property><pencil:property name="textPadding">5.55,5.066666666666667</pencil:property><pencil:property name="fillColor">#CCFFFFFF</pencil:property><pencil:property name="strokeColor">#000000FF</pencil:property><pencil:property name="strokeStyle">1|</pencil:property><pencil:property name="textContent">Minion</pencil:property><pencil:property name="textFont">Cantarell|bold|normal|15px|none</pencil:property><pencil:property name="textColor">#000000FF</pencil:property><pencil:property name="textAlign">1,1</pencil:property></pencil:metadata>
            <path style="stroke-linejoin: round; fill: rgb(204, 255, 255); fill-opacity: 1; stroke: rgb(0, 0, 0); stroke-opacity: 1; stroke-width: 1;" pencil:name="line1" id="1563da489bb7410d899cba95e4585676" transform="translate(0.5,0.5)" d="M 0 0 C 37 0 74 0 111 0 C 110 25 110 51 111 76 C 74 75 37 75 0 76 C -1 51 -1 25 0 0 z"/>
            <text pencil:name="text" id="5769af1c12b3477ba9e7b8c429c861c8" style="font-family: Cantarell; font-size: 15px; font-weight: bold; font-style: normal; text-decoration: none; fill: rgb(0, 0, 0); fill-opacity: 1;" transform="translate(6,44)"><tspan x="25.950000000000003" y="0">Minion</tspan></text>
        </g><g pencil:type="Shape" pencil:def="Evolus.Sketchy.GUI:box" id="aaab01c50c6b4647b85809a46a285869" transform="matrix(1,0,0,1,293,390)"><pencil:metadata><pencil:property name="box">111,76</pencil:property><pencil:property name="textPadding">5.55,5.066666666666667</pencil:property><pencil:property name="fillColor">#CCFFFFFF</pencil:property><pencil:property name="strokeColor">#000000FF</pencil:property><pencil:property name="strokeStyle">1|</pencil:property><pencil:property name="textContent">Minion</pencil:property><pencil:property name="textFont">Cantarell|bold|normal|15px|none</pencil:property><pencil:property name="textColor">#000000FF</pencil:property><pencil:property name="textAlign">1,1</pencil:property></pencil:metadata>
            <path style="stroke-linejoin: round; fill: rgb(204, 255, 255); fill-opacity: 1; stroke: rgb(0, 0, 0); stroke-opacity: 1; stroke-width: 1;" pencil:name="line1" id="0beb824998634ed489472861859a13cd" transform="translate(0.5,0.5)" d="M 0 0 C 37 0 74 0 111 0 C 111 25 111 51 111 76 C 74 76 37 76 0 76 C 0 51 0 25 0 0 z"/>
            <text pencil:name="text" id="974d16e8c9c94d0fb79dbcd4b6f948ec" style="font-family: Cantarell; font-size: 15px; font-weight: bold; font-style: normal; text-decoration: none; fill: rgb(0, 0, 0); fill-opacity: 1;" transform="translate(6,44)"><tspan x="25.950000000000003" y="0">Minion</tspan></text>
        </g><g pencil:type="Shape" pencil:def="Evolus.Sketchy.GUI:box" id="4cb2bb37db4449e69e286da35ef696c7" transform="matrix(1,0,0,1,146,390)"><pencil:metadata><pencil:property name="box">111,76</pencil:property><pencil:property name="textPadding">5.55,5.066666666666667</pencil:property><pencil:property name="fillColor">#CCFFFFFF</pencil:property><pencil:property name="strokeColor">#000000FF</pencil:property><pencil:property name="strokeStyle">1|</pencil:property><pencil:property name="textContent">Minion</pencil:property><pencil:property name="textFont">Cantarell|bold|normal|15px|none</pencil:property><pencil:property name="textColor">#000000FF</pencil:property><pencil:property name="textAlign">1,1</pencil:property></pencil:metadata>
            <path style="stroke-linejoin: round; fill: rgb(204, 255, 255); fill-opacity: 1; stroke: rgb(0, 0, 0); stroke-opacity: 1; stroke-width: 1;" pencil:name="line1" id="38f5e742839243a8b40ab4753384dc28" transform="translate(0.5,0.5)" d="M 0 0 C 37 0 74 0 111 0 C 111 25 111 51 111 76 C 74 76 37 76 0 76 C 0 51 0 25 0 0 z"/>
            <text pencil:name="text" id="f818595287854fd2bd999f10508f2b3c" style="font-family: Cantarell; font-size: 15px; font-weight: bold; font-style: normal; text-decoration: none; fill: rgb(0, 0, 0); fill-opacity: 1;" transform="translate(6,44)"><tspan x="25.950000000000003" y="0">Minion</tspan></text>
        </g><g pencil:type="Shape" pencil:def="Evolus.Sketchy.GUI:box" id="64c4661f742a4029aef1b5c1fec98479" transform="matrix(1,0,0,1,412,75)"><pencil:metadata><pencil:property name="box">200,121</pencil:property><pencil:property name="textPadding">10,8.066666666666666</pencil:property><pencil:property name="fillColor">#FFFFCCFF</pencil:property><pencil:property name="strokeColor">#000000FF</pencil:property><pencil:property name="strokeStyle">1|</pencil:property><pencil:property name="textContent">Master</pencil:property><pencil:property name="textFont">Cantarell|bold|normal|20px|none</pencil:property><pencil:property name="textColor">#000000FF</pencil:property><pencil:property name="textAlign">1,1</pencil:property></pencil:metadata>
            <path style="stroke-linejoin: round; fill: rgb(255, 255, 204); fill-opacity: 1; stroke: rgb(0, 0, 0); stroke-opacity: 1; stroke-width: 1;" pencil:name="line1" id="9df533a04cc84d67af879d93c535f0c5" transform="translate(0.5,0.5)" d="M 0 0 C 67 0 133 0 200 0 C 201 40 201 81 200 121 C 133 123 67 123 0 121 C -1 81 -1 40 0 0 z"/>
            <text pencil:name="text" id="08df2e4ee61d45fd8af781d312d15b30" style="font-family: Cantarell; font-size: 20px; font-weight: bold; font-style: normal; text-decoration: none; fill: rgb(0, 0, 0); fill-opacity: 1;" transform="translate(10,69)"><tspan x="56" y="0">Master</tspan></text>
        </g><g pencil:type="Shape" pencil:def="Evolus.Sketchy.GUI:textbox" id="e1718bd6407e4e62b495096ed66d24e1" transform="matrix(1,0,0,1,376,215)"><pencil:metadata><pencil:property name="box">259,25</pencil:property><pencil:property name="disabled">false</pencil:property><pencil:property name="fillColor">#FFCC99FF</pencil:property><pencil:property name="strokeColor">#000000FF</pencil:property><pencil:property name="strokeStyle">1|</pencil:property><pencil:property name="textContent">Salt-syndic</pencil:property><pencil:property name="textFont">Cantarell|normal|normal|14px|none</pencil:property><pencil:property name="textColor">#000000FF</pencil:property><pencil:property name="textAlign">1,1</pencil:property></pencil:metadata>
            <g pencil:name="rect" id="e3575571d92d4c2688bbb28457675017" transform="translate(0.5,0.5)" style="fill: rgb(255, 204, 153); fill-opacity: 1; stroke: rgb(0, 0, 0); stroke-opacity: 1; stroke-width: 1;">
    			<path style="stroke-linejoin: round; stroke: rgb(0, 0, 0); stroke-opacity: 1; stroke-width: 1;" pencil:name="line1" id="636ca00d53164da2a972d20e23a22e71" transform="translate(0.5,0.5)" d="M 0 0 C 86 1 173 1 259 0 C 259 8 259 17 259 25 C 173 26 86 26 0 25 C 0 17 0 8 0 0 z"/>
    		</g>
    		<text pencil:name="text" id="7a6b69aa714b41c6af5189556e1774f4" style="font-family: Cantarell; font-size: 14px; font-weight: normal; font-style: normal; text-decoration: none; fill: rgb(0, 0, 0); fill-opacity: 1;" transform="translate(95,18)">Salt-syndic</text>
        </g></g></g></svg>