<?xml version="1.0" encoding="UTF-8"?>
<svg xmlns="http://www.w3.org/2000/svg" width="744.09448819" height="1052.3622047" id="exportedSVG" version="1.1" pencil:version="1.2.2" xmlns:pencil="http://www.evolus.vn/Namespace/Pencil" sodipodi:docname="salt.ep" xmlns:sodipodi="http://sodipodi.sourceforge.net/DTD/sodipodi-0.dtd"><g inkscape:label="1floor" xmlns:inkscape="http://www.inkscape.org/namespaces/inkscape" inkscape:groupmode="layer" id="layer_1floor"><g><rect x="0" y="0" width="1223" height="1223" fill="none"/><g pencil:type="Shape" pencil:def="Evolus.Sketchy.GUI:line" id="c2ad78fed96f495a8f88b017523d0aa0" transform="matrix(1,0,0,1,274,139)"><pencil:metadata><pencil:property name="a">6,-34</pencil:property><pencil:property name="b">-92,39</pencil:property><pencil:property name="mode">free</pencil:property><pencil:property name="strokeColor">#000000FF</pencil:property><pencil:property name="strokeStyle">1|</pencil:property></pencil:metadata>
            <g pencil:name="rect" id="f0acf39370ae4d7c96642988b35766f1" transform="translate(0.5,0.5)" style="stroke: rgb(0, 0, 0); stroke-opacity: 1; stroke-width: 1;">
    			<path style="stroke: #FFFFFF; stroke-opacity: 0; stroke-width: 8px; fill: none;" pencil:name="bg" id="2e365492c22841ba9958e696599554a6" transform="translate(0.5,0.5)" d="M 6 -34 C -27 -10 -59 15 -92 39"/>
    			<path style="stroke-linejoin: round; fill: none;" pencil:name="line1" id="b2dfa0dff9d6463aae023fc14e652704" transform="translate(0.5,0.5)" d="M 6 -34 C -27 -10 -59 15 -92 39"/>
    		</g>
        </g><g pencil:type="Shape" pencil:def="Evolus.Sketchy.GUI:line" id="38845af1131e4c19b2415c11d2e9f8de" transform="matrix(1,0,0,1,272,101)"><pencil:metadata><pencil:property name="a">26,1</pencil:property><pencil:property name="b">26,80</pencil:property><pencil:property name="mode">free</pencil:property><pencil:property name="strokeColor">#000000FF</pencil:property><pencil:property name="strokeStyle">1|</pencil:property></pencil:metadata>
            <g pencil:name="rect" id="d05bff35a66244a0bb8f086b5913bef2" transform="translate(0.5,0.5)" style="stroke: rgb(0, 0, 0); stroke-opacity: 1; stroke-width: 1;">
    			<path style="stroke: #FFFFFF; stroke-opacity: 0; stroke-width: 8px; fill: none;" pencil:name="bg" id="ec5e95306b0640e2b6aca2745030f395" transform="translate(0.5,0.5)" d="M 26 1 C 26 27 26 54 26 80"/>
    			<path style="stroke-linejoin: round; fill: none;" pencil:name="line1" id="e3109c9d298440c39e58fee93b6bc01d" transform="translate(0.5,0.5)" d="M 26 1 C 26 27 26 54 26 80"/>
    		</g>
        </g><g pencil:type="Shape" pencil:def="Evolus.Sketchy.GUI:line" id="1b01f3fea00c4ccfac38daf01d4b611d" transform="matrix(1,0,0,1,376,108)"><pencil:metadata><pencil:property name="a">-73,-11</pencil:property><pencil:property name="b">29,75</pencil:property><pencil:property name="mode">free</pencil:property><pencil:property name="strokeColor">#000000FF</pencil:property><pencil:property name="strokeStyle">1|</pencil:property></pencil:metadata>
            <g pencil:name="rect" id="0e74393ce5a64055a75575265002f727" transform="translate(0.5,0.5)" style="stroke: rgb(0, 0, 0); stroke-opacity: 1; stroke-width: 1;">
    			<path style="stroke: #FFFFFF; stroke-opacity: 0; stroke-width: 8px; fill: none;" pencil:name="bg" id="85881a3353014cf886d32ec3150abe51" transform="translate(0.5,0.5)" d="M -73 -11 C -39 18 -5 47 29 75"/>
    			<path style="stroke-linejoin: round; fill: none;" pencil:name="line1" id="450880c61c9f473dafa881bef141918d" transform="translate(0.5,0.5)" d="M -73 -11 C -39 18 -5 47 29 75"/>
    		</g>
        </g><g pencil:type="Shape" pencil:def="Evolus.Sketchy.GUI:box" id="8fdada3ea1de4c708c015bb9e7dc8bac" transform="matrix(1,0,0,1,198,37)"><pencil:metadata><pencil:property name="box">200,72</pencil:property><pencil:property name="textPadding">10,4.8</pencil:property><pencil:property name="fillColor">#FFCCCCFF</pencil:property><pencil:property name="strokeColor">#000000FF</pencil:property><pencil:property name="strokeStyle">1|</pencil:property><pencil:property name="textContent">Master</pencil:property><pencil:property name="textFont">Cantarell|bold|normal|18px|none</pencil:property><pencil:property name="textColor">#000000FF</pencil:property><pencil:property name="textAlign">1,1</pencil:property></pencil:metadata>
            <path style="stroke-linejoin: round; fill: rgb(255, 204, 204); fill-opacity: 1; stroke: rgb(0, 0, 0); stroke-opacity: 1; stroke-width: 1;" pencil:name="line1" id="e5ec711e8dd043c7aded5d191eab7ee4" transform="translate(0.5,0.5)" d="M 0 0 C 67 0 133 0 200 0 C 200 24 200 48 200 72 C 133 71 67 71 0 72 C -1 48 -1 24 0 0 z"/>
            <text pencil:name="text" id="5a6db00af2e444f3b36020d5b0591943" style="font-family: Cantarell; font-size: 18px; font-weight: bold; font-style: normal; text-decoration: none; fill: rgb(0, 0, 0); fill-opacity: 1;" transform="translate(10,43)"><tspan x="59.5" y="0">Master</tspan></text>
        </g><g pencil:type="Shape" pencil:def="Evolus.Sketchy.GUI:box" id="e3357a87a17348c8bd7f373cb7a264dd" transform="matrix(1,0,0,1,377,168)"><pencil:metadata><pencil:property name="box">111,76</pencil:property><pencil:property name="textPadding">5.55,5.066666666666667</pencil:property><pencil:property name="fillColor">#CCFFFFFF</pencil:property><pencil:property name="strokeColor">#000000FF</pencil:property><pencil:property name="strokeStyle">1|</pencil:property><pencil:property name="textContent">Minion</pencil:property><pencil:property name="textFont">Cantarell|bold|normal|15px|none</pencil:property><pencil:property name="textColor">#000000FF</pencil:property><pencil:property name="textAlign">1,1</pencil:property></pencil:metadata>
            <path style="stroke-linejoin: round; fill: rgb(204, 255, 255); fill-opacity: 1; stroke: rgb(0, 0, 0); stroke-opacity: 1; stroke-width: 1;" pencil:name="line1" id="7d0107d06d234222980ddf3025a52b14" transform="translate(0.5,0.5)" d="M 0 0 C 37 0 74 0 111 0 C 111 25 111 51 111 76 C 74 76 37 76 0 76 C 0 51 0 25 0 0 z"/>
            <text pencil:name="text" id="6353e69b067f42a38b0b73a065dabf8a" style="font-family: Cantarell; font-size: 15px; font-weight: bold; font-style: normal; text-decoration: none; fill: rgb(0, 0, 0); fill-opacity: 1;" transform="translate(6,44)"><tspan x="25.950000000000003" y="0">Minion</tspan></text>
        </g><g pencil:type="Shape" pencil:def="Evolus.Sketchy.GUI:box" id="83ad6ab7ac4b406fa57e6e5a71a9c58d" transform="matrix(1,0,0,1,242,168)"><pencil:metadata><pencil:property name="box">111,76</pencil:property><pencil:property name="textPadding">5.55,5.066666666666667</pencil:property><pencil:property name="fillColor">#CCFFFFFF</pencil:property><pencil:property name="strokeColor">#000000FF</pencil:property><pencil:property name="strokeStyle">1|</pencil:property><pencil:property name="textContent">Minion</pencil:property><pencil:property name="textFont">Cantarell|bold|normal|15px|none</pencil:property><pencil:property name="textColor">#000000FF</pencil:property><pencil:property name="textAlign">1,1</pencil:property></pencil:metadata>
            <path style="stroke-linejoin: round; fill: rgb(204, 255, 255); fill-opacity: 1; stroke: rgb(0, 0, 0); stroke-opacity: 1; stroke-width: 1;" pencil:name="line1" id="7b68bd6333594fe89656b25cdb790898" transform="translate(0.5,0.5)" d="M 0 0 C 37 0 74 0 111 0 C 111 25 111 51 111 76 C 74 77 37 77 0 76 C 0 51 0 25 0 0 z"/>
            <text pencil:name="text" id="6347a9993df44d7b9161a285e22b7a32" style="font-family: Cantarell; font-size: 15px; font-weight: bold; font-style: normal; text-decoration: none; fill: rgb(0, 0, 0); fill-opacity: 1;" transform="translate(6,44)"><tspan x="25.950000000000003" y="0">Minion</tspan></text>
        </g><g pencil:type="Shape" pencil:def="Evolus.Sketchy.GUI:box" id="b381a53f7b3343afa361479ac012acd5" transform="matrix(1,0,0,1,105,168)"><pencil:metadata><pencil:property name="box">111,76</pencil:property><pencil:property name="textPadding">5.55,5.066666666666667</pencil:property><pencil:property name="fillColor">#CCFFFFFF</pencil:property><pencil:property name="strokeColor">#000000FF</pencil:property><pencil:property name="strokeStyle">1|</pencil:property><pencil:property name="textContent">Minion</pencil:property><pencil:property name="textFont">Cantarell|bold|normal|15px|none</pencil:property><pencil:property name="textColor">#000000FF</pencil:property><pencil:property name="textAlign">1,1</pencil:property></pencil:metadata>
            <path style="stroke-linejoin: round; fill: rgb(204, 255, 255); fill-opacity: 1; stroke: rgb(0, 0, 0); stroke-opacity: 1; stroke-width: 1;" pencil:name="line1" id="5b442b75fff948389518ee8f676ca09d" transform="translate(0.5,0.5)" d="M 0 0 C 37 0 74 0 111 0 C 111 25 111 51 111 76 C 74 76 37 76 0 76 C 0 51 0 25 0 0 z"/>
            <text pencil:name="text" id="1e678da24dd74e218112fecc9d45a892" style="font-family: Cantarell; font-size: 15px; font-weight: bold; font-style: normal; text-decoration: none; fill: rgb(0, 0, 0); fill-opacity: 1;" transform="translate(6,44)"><tspan x="25.950000000000003" y="0">Minion</tspan></text>
        </g></g></g></svg>